<?xml version="1.0" encoding="utf-8"?>
<!-- Generator: Adobe Illustrator 16.0.0, SVG Export Plug-In . SVG Version: 6.00 Build 0)  -->
<!DOCTYPE svg PUBLIC "-//W3C//DTD SVG 1.1//EN" "http://www.w3.org/Graphics/SVG/1.1/DTD/svg11.dtd">
<svg version="1.1" id="Layer_1" xmlns="http://www.w3.org/2000/svg" xmlns:xlink="http://www.w3.org/1999/xlink" x="0px" y="0px"
	 width="50px" height="50px" viewBox="0 0 50 50" enable-background="new 0 0 50 50" xml:space="preserve">
<g>
	<g>
		<circle fill="#965CA5" cx="25" cy="25" r="25"/>
		<path fill="#844997" d="M50,25c0-0.6,0-1.2-0.1-1.8l-8.4-8.4c-0.1-0.1-0.2-0.2-0.3-0.2c-0.3-0.2-0.6-0.3-1-0.4c-0.1,0-0.3,0-0.4,0
			l-14.8-0.1L10.3,14c-0.6,0-1.2,0.2-1.7,0.6l-0.5,0.5c-0.1,0.2-0.2,0.3-0.3,0.5c-0.1,0.3-0.2,0.7-0.2,1L7.5,33.2c0,0.1,0,0.2,0,0.3
			C7.6,34,7.7,34.4,8,34.7l0.4,0.5l14.7,14.7c0.6,0,1.2,0.1,1.9,0.1C38.8,50,50,38.8,50,25z"/>
	</g>
	<path fill="#9BCAED" d="M42,15.3l-0.4-0.5l0,0l-12.2,9.8L28.8,25L25,28.1l-3.8-3.1l-0.5-0.4L8.6,14.6C9,14.2,9.6,14,10.3,14
		l14.8,0.1L10.3,14c-0.6,0-1.2,0.2-1.7,0.6l-0.5,0.5c-0.1,0.2-0.2,0.3-0.3,0.5c0.1-0.2,0.2-0.4,0.3-0.5l12,9.9L8,34.7l0.4,0.5
		l12.2-9.8l4.1,3.4h0c0,0,0.1,0,0.1,0c0,0,0,0,0,0c0,0,0.1,0,0.1,0h0c0,0,0.1,0,0.1,0c0,0,0,0,0,0c0,0,0.1,0,0.1,0h0l4.2-3.4
		l12.1,10l0.5-0.5l-12-9.9L42,15.3z"/>
	<g>
		<path fill="#ECF0F0" d="M42.2,15.7c0-0.1-0.1-0.1-0.1-0.2c0-0.1-0.1-0.2-0.2-0.3L29.9,25l12,9.9c0.3-0.4,0.5-0.9,0.5-1.5l0.1-16.6
			C42.5,16.4,42.4,16,42.2,15.7z"/>
		<path fill="#ECF0F0" d="M8.1,15.1c-0.1,0.2-0.2,0.3-0.3,0.5c-0.1,0.3-0.2,0.7-0.2,1L7.5,33.2c0,0.1,0,0.2,0,0.3
			C7.6,34,7.7,34.4,8,34.7l12.1-9.7L8.1,15.1z"/>
		<path fill="#ECF0F0" d="M25.2,28.8L25.2,28.8C25.2,28.8,25.1,28.8,25.2,28.8c-0.1,0.1-0.1,0.1-0.1,0.1c0,0-0.1,0-0.1,0h0
			c0,0-0.1,0-0.1,0c0,0,0,0,0,0c0,0-0.1,0-0.1,0h0l-4.1-3.4L8.4,35.2c0,0,0.1,0.1,0.1,0.1c0.5,0.4,1,0.6,1.7,0.6L39.7,36
			c0.2,0,0.3,0,0.5,0c0.4-0.1,0.8-0.2,1.1-0.5c0.1,0,0.1-0.1,0.2-0.1l-12.1-10L25.2,28.8z"/>
		<path fill="#ECF0F0" d="M8.6,14.6l12.1,9.9l0.5,0.4l3.8,3.1l3.9-3.1l0.5-0.4l12.2-9.8c-0.1-0.1-0.2-0.2-0.3-0.2
			c-0.3-0.2-0.6-0.3-1-0.4c-0.1,0-0.3,0-0.4,0l-14.8-0.1L10.3,14C9.6,14,9,14.2,8.6,14.6z"/>
	</g>
</g>
</svg>
